Coordinates
version=1
nRows=14
nColumns=36
inDegrees=yes

Units are S.I. units (second, meters, Newtons, ...)
If the header above contains a line with 'inDegrees', this indicates whether rotational values are in degrees (yes) or radians (no).

endheader
time	pelvis_tilt	pelvis_list	pelvis_rotation	pelvis_tx	pelvis_ty	pelvis_tz	hip_flexion_r	hip_adduction_r	hip_rotation_r	knee_angle_r	knee_angle_r_beta	ankle_angle_r	subtalar_angle_r	mtp_angle_r	hip_flexion_l	hip_adduction_l	hip_rotation_l	knee_angle_l	knee_angle_l_beta	ankle_angle_l	subtalar_angle_l	mtp_angle_l	lumbar_extension	lumbar_bending	lumbar_rotation	arm_flex_r	arm_add_r	arm_rot_r	elbow_flex_r	pro_sup_r	arm_flex_l	arm_add_l	arm_rot_l	elbow_flex_l	pro_sup_l
      1.48333330	    -23.82457484	      0.82855295	     -1.31986149	     -0.99433712	      1.20591800	     -0.06573652	     46.14710082	     -3.92947660	     -0.70479096	     41.87730580	      0.73089687	     21.56992846	    -13.41188025	     -7.49999987	     48.33219313	     -3.77918316	     -3.54101392	     45.36851598	      0.79182998	     21.50384897	     -6.45125617	     -7.49999987	    -35.64900585	      3.61558249	     -2.80312418	    -12.97878397	    -10.61748785	     -6.45222325	     42.27591964	     66.11428414	    -11.47191372	     -7.11462277	     -8.48593602	     33.90905726	     53.88455016
      1.48750000	    -23.41779265	      0.79774190	     -1.10927113	     -0.99369752	      1.20372097	     -0.06296767	     45.99881818	     -4.03571643	     -0.78375395	     42.80529227	      0.74709329	     22.19788808	    -13.48563815	     -7.49999987	     48.34628407	     -3.74661944	     -3.42181319	     46.24223294	      0.80707922	     21.87811087	     -6.40790851	     -7.49999987	    -36.53381259	      3.46812104	     -3.01010576	    -11.92090926	    -10.25636935	     -5.69016323	     41.67725235	     66.16465220	     -9.80852915	     -7.83933928	     -6.15123595	     33.41459213	     54.14991012
      1.49166670	    -22.91816258	      0.83440236	     -1.04026775	     -0.99113758	      1.20088037	     -0.06289321	     45.81409236	     -4.11004881	     -0.74428683	     43.79933732	      0.76444265	     22.72822283	    -13.65836839	     -7.49999987	     48.16110204	     -3.70943325	     -3.37881417	     47.14599305	      0.82285281	     22.39735450	     -6.30303749	     -7.49999987	    -37.35066012	      3.28578320	     -3.10173818	    -11.22737222	     -9.74001323	     -5.51805370	     41.53389712	     66.03551097	     -8.38225148	     -8.00925406	     -5.08776035	     32.97419315	     54.28629174
      1.49583330	    -22.76153893	      0.84351107	     -0.91181560	     -0.99255662	      1.20079555	     -0.06294763	     46.04553286	     -4.17383472	     -0.73702203	     44.66806394	      0.77960479	     23.04734138	    -13.91365286	     -7.49999987	     48.30503250	     -3.61163279	     -3.23892239	     47.81062503	      0.83445282	     22.71374707	     -6.36496843	     -7.49999987	    -37.87523768	      3.26367759	     -3.03414204	    -10.54416505	     -9.40458419	     -5.23123330	     41.26573927	     67.05477172	     -6.64592104	     -8.92804957	     -0.84171388	     32.40582874	     53.53573704
      1.50000000	    -22.66492754	      0.84568430	     -0.94398202	     -0.99047449	      1.19873725	     -0.06446489	     46.24257600	     -4.21478143	     -0.71511571	     45.39726247	      0.79233170	     23.39994990	    -13.83671051	     -7.49999987	     48.35570730	     -3.59632694	     -3.18285041	     48.37403671	      0.84428621	     23.12071088	     -6.34390723	     -7.49999987	    -38.44457853	      3.28197547	     -2.73434649	     -9.14975679	     -9.36854375	     -4.54070714	     39.96352149	     66.95964934	     -5.18071076	     -9.57126386	      0.47617282	     32.68617490	     53.75311552
      1.50416670	    -23.24762017	      1.02572363	     -0.97227139	     -0.99215485	      1.19201073	     -0.06433433	     47.51090945	     -4.34992756	     -0.45895480	     46.50083828	      0.81159273	     24.04810694	    -13.81094133	     -7.49999987	     49.48934677	     -3.48151668	     -3.21623693	     49.38924705	      0.86200498	     23.62721104	     -6.67722294	     -7.49999987	    -38.10381593	      3.11582188	     -2.76515284	     -7.67929967	     -9.52606924	     -2.26301127	     38.10643286	     67.14805262	     -3.90684531	    -10.66160069	      3.98550530	     32.98396550	     54.00288745
      1.50833330	    -23.51009622	      1.12098700	     -1.03977607	     -0.98963956	      1.19349037	     -0.06553282	     48.08016023	     -4.41866022	     -0.23688424	     47.03472672	      0.82091084	     24.28495918	    -13.68905222	     -7.49999987	     49.93336092	     -3.38683094	     -3.16673351	     49.80206848	      0.86921007	     23.81414799	     -6.96549675	     -7.49999987	    -38.21982527	      3.08242625	     -2.48563901	     -6.28523143	    -10.08418269	     -0.39197247	     37.15565019	     67.61355637	     -2.44218058	    -11.65438801	      7.32698876	     33.68680388	     53.62277655
      1.51250000	    -23.65046966	      1.22005630	     -1.12078156	     -0.98691136	      1.19028148	     -0.06595280	     48.49277378	     -4.51054588	     -0.09570019	     47.62260895	      0.83117132	     24.67546027	    -13.63513698	     -7.49999987	     50.29123390	     -3.32627677	     -3.16076616	     50.47523052	      0.88095896	     24.08587789	     -7.29253586	     -7.49999987	    -38.30223079	      3.03367927	     -2.11043830	     -4.99491808	    -10.41570701	      0.15889836	     36.40567106	     67.28492402	     -1.17817515	    -12.08181466	      8.35317818	     34.48320008	     53.95070676
      1.51666670	    -23.97683763	      1.35999396	     -1.27702847	     -0.98282414	      1.18453382	     -0.06818943	     49.17747866	     -4.62752011	      0.20273654	     48.53881120	      0.84716207	     25.25309326	    -13.52756602	     -7.49999987	     50.82820230	     -3.24144873	     -3.22520869	     51.30602279	      0.89545902	     24.65748098	     -7.77569986	     -7.49999987	    -37.85537323	      2.96106393	     -1.90566279	     -3.63315069	    -11.05381999	      2.27530148	     35.40768127	     67.30398309	      0.02125190	    -12.54703343	     10.75995559	     34.69708140	     54.26613318
      1.52083330	    -23.80139901	      1.50539294	     -1.56137433	     -0.97580592	      1.17944504	     -0.06835132	     49.29113583	     -4.70217487	      0.49399143	     49.69722220	      0.86738016	     26.13485862	    -13.34976427	     -7.49999987	     50.78447187	     -3.27554369	     -3.39839009	     52.32988965	      0.91332887	     25.31700069	     -8.06908421	     -7.49999987	    -37.76856623	      2.88044487	     -1.64113954	     -2.38687445	    -11.64562687	      4.16639555	     34.34326967	     67.18993809	      1.24051505	    -12.63885132	     12.44464892	     34.61732513	     54.41085076
      1.52500000	    -23.53452049	      1.72694850	     -1.70980686	     -0.97517032	      1.18074548	     -0.06924511	     49.22338462	     -4.93035280	      0.70264687	     50.53730328	      0.88204234	     26.64755109	    -13.18503315	     -7.49999987	     50.60663693	     -3.14713271	     -3.65460659	     53.05046769	      0.92590533	     25.73125532	     -8.25608491	     -7.49999987	    -38.09848558	      2.82372541	     -1.35149455	     -1.02911634	    -11.84315036	      4.82175722	     33.57866262	     66.79500578	      2.73869290	    -12.52241864	     12.84978286	     34.75098967	     54.73710876
      1.52916670	    -23.43652413	      1.84486322	     -1.78934800	     -0.97062014	      1.17769170	     -0.06687985	     49.20522092	     -4.98892853	      0.83654556	     51.31768541	      0.89566257	     27.33289107	    -13.01722494	     -7.49999987	     50.57627370	     -3.12948856	     -3.64881675	     53.68845195	      0.93704026	     26.19565947	     -8.22272778	     -7.49999987	    -37.88442316	      2.75178262	     -1.50763170	      0.61117630	    -12.12127702	      7.27713893	     32.03770793	     66.96673885	      4.03085193	    -12.84755056	     14.83135504	     34.45175617	     55.08230871
      1.53333330	    -23.08580868	      2.04712182	     -1.94197499	     -0.96588228	      1.17379768	     -0.06824895	     48.95734105	     -5.12002266	      1.02059784	     52.17941883	      0.91070266	     28.03228607	    -12.95782198	     -7.49999987	     50.24380372	     -3.11232827	     -3.88318502	     54.45888820	      0.95048691	     26.88443383	     -7.99174096	     -7.49999987	    -38.17440500	      2.56067482	     -1.44711351	      1.83638529	    -12.18935506	      7.35179570	     31.74654354	     66.55705148	      5.37074521	    -12.71680857	     14.79220849	     34.68420847	     55.31351717
      1.53750000	    -22.84835217	      2.21227404	     -2.02784722	     -0.96374685	      1.17500361	     -0.06725357	     48.79092649	     -5.21499305	      1.19762318	     52.76459796	      0.92091596	     28.49674502	    -12.72712950	     -7.49999987	     50.00502833	     -2.99145036	     -3.95224063	     54.87432998	      0.95773773	     27.08829438	     -7.90319315	     -7.49999987	    -38.09905361	      2.42458417	     -1.52721135	      3.51524788	    -12.35160785	      8.91068436	     30.82407643	     66.54070981	      6.98942625	    -12.91034547	     16.61405455	     34.36403790	     56.06309741
